<?xml version="1.0" encoding="UTF-8"?>
<svg id="Layer_1" xmlns="http://www.w3.org/2000/svg" version="1.1" viewBox="0 0 2000 2000">
  <!-- Generator: Adobe Illustrator 29.6.1, SVG Export Plug-In . SVG Version: 2.1.1 Build 9)  -->
  <defs>
    <style>
      .st0 {
        font-family: Helvetica-Bold, Helvetica;
        font-size: 240.52px;
        font-weight: 700;
      }

      .st0, .st1, .st2 {
        fill: #022a79;
      }

      .st2 {
        font-family: Arial-Black, 'Arial Black';
        font-size: 286.11px;
        font-weight: 800;
      }
    </style>
  </defs>
  <path class="st1" d="M1203.12,371.65c25.77,27.63,53.43,53.9,82.5,77.91,51.54,1.86,103.23,9.34,154.7,11.1,12.44.42,39.16,1.45,49.42-4.28,11.89-6.65,13.11-23.99,3.59-33.37-45.92-34.99-88.48-74.78-134.43-109.66-26.1-19.81-43.31-12.35-73.71-13.8-44.52-2.12-88.82-5.51-133.56-6.14-6.57-.09-21.68-5.14-22.21,6.99-.37,8.72,27.27,29.1,34.33,35.8,1.29,1.22,1.4,1.05.99,3.18-9.72,1.25-20.05,11.79-25.84,19.47-4.72,6.25-11.28,22.98-14.49,26.19-3.48,3.48-12.7,3.64-16.28,10.59-5.3,10.28,1.66,20.58.6,25.29-.69,3.05-12.47,18.16-15.36,21.36-13.4,14.81-29.93,24.18-48.33,31.55,10.13,25.44,40.59,44.19,59.86,15.29,11.42-17.12,14.95-42.35,23.89-55.94,6.79-10.31,18.45-5.04,17.6-25.52-.54-12.96-2.99-13.76,3.7-26.88,10.49-20.57,25.4-26.2,47.59-27.63,32.28-2.08,83.14-2.42,115.18.08,3.19.25,10.79,1.12,13.49,1.86,10.43,2.87,12.5,16.6.43,18.16l-123.66-1.6ZM1226.15,525.15h-141.24v520.42h176.54v-506.6c30.42,10.18,103.24,32.68,128.42,5.61,5.13-5.52,26.39-58.19,25-62.99-.53-1.83-2.11-2.19-3.74-2.49-9.33-1.69-23.85-.67-33.75-1.55-20.34-1.82-41.12-3.77-61.41-6.13-17.88-2.08-37.92-1.66-52.17-13.84l-85.2-76.15c-7.1-1.97-10.83,13.33-10.91,18.63-.25,16.78,5.48,18.84-5.37,35.94-5.98,9.42-14.09,11.7-10.66,24.74,4.49,17.03,57.24,49.01,72.56,60.91,1.27.99,2.79-.05,1.94,3.52ZM966.71,546.64c2.44.5,3.18-.74,4.62-2.29,8.06-8.75,24.86-58.47,26.95-71.32.41-2.51,1.58-5.41-.01-7.83-2.23-3.4-71.43,10.22-80.27,13.42l-2.8,6.6c.98,1.98,8.99,4.62,10.84,4.62h33.01c.67,2.68-1.11,3.07-2.29,4.62-16.88,22.05-47.76,50.7-69.13,69.03-72.13,61.86-172.13,122.83-270.21,119.85-6.64-.2-16.9-4.88-22.03.91-3.93,11.75,17.61,14.97,25.36,15.71,36.53,3.49,80.62-8.66,114.56-21.68,89.49-34.33,166.69-99.4,231.43-168.48v36.84ZM1021.97,674.06h-171.94v371.51h171.94v-371.51ZM793.23,1045.57l-.67-216.56-158.99.1v216.46h159.66Z"/>
  <text class="st2" transform="translate(355.97 1342.85)"><tspan x="0" y="0">PODIUM</tspan></text>
  <text class="st0" transform="translate(373.19 1592.25)"><tspan x="0" y="0">TUTORING</tspan></text>
</svg>